<svg xmlns="http://www.w3.org/2000/svg" xmlns:xlink="http://www.w3.org/1999/xlink" width="375" viewBox="0 0 375 375" height="375" version="1.0"><defs><clipPath id="a"><path d="M 274.648438 137.324219 L 298 137.324219 L 298 160 L 274.648438 160 Z M 274.648438 137.324219"/></clipPath><clipPath id="b"><path d="M 274.648438 163 L 298 163 L 298 186 L 274.648438 186 Z M 274.648438 163"/></clipPath><clipPath id="c"><path d="M 274.648438 189 L 298 189 L 298 212 L 274.648438 212 Z M 274.648438 189"/></clipPath><clipPath id="d"><path d="M 274.648438 215 L 298 215 L 298 237.824219 L 274.648438 237.824219 Z M 274.648438 215"/></clipPath><clipPath id="e"><path d="M 300 215 L 324 215 L 324 237.824219 L 300 237.824219 Z M 300 215"/></clipPath><clipPath id="f"><path d="M 326 215 L 350 215 L 350 237.824219 L 326 237.824219 Z M 326 215"/></clipPath><clipPath id="g"><path d="M 352 215 L 375 215 L 375 237.824219 L 352 237.824219 Z M 352 215"/></clipPath><g id="h"><path d="M 17.71875 -60.1875 C 22.644531 -60.1875 26.210938 -59.039062 28.421875 -56.75 C 30.628906 -54.457031 31.734375 -50.988281 31.734375 -46.34375 L 31.734375 -44.203125 C 31.734375 -41.097656 31.242188 -38.539062 30.265625 -36.53125 C 29.296875 -34.53125 27.75 -33.046875 25.625 -32.078125 C 28.207031 -31.097656 30.023438 -29.503906 31.078125 -27.296875 C 32.140625 -25.085938 32.671875 -22.378906 32.671875 -19.171875 L 32.671875 -14.265625 C 32.671875 -9.628906 31.46875 -6.09375 29.0625 -3.65625 C 26.65625 -1.21875 23.070312 0 18.3125 0 L 3.4375 0 L 3.4375 -60.1875 Z M 12.890625 -27.078125 L 12.890625 -8.59375 L 18.3125 -8.59375 C 19.914062 -8.59375 21.132812 -9.019531 21.96875 -9.875 C 22.800781 -10.738281 23.21875 -12.289062 23.21875 -14.53125 L 23.21875 -19.78125 C 23.21875 -22.582031 22.742188 -24.5 21.796875 -25.53125 C 20.847656 -26.5625 19.285156 -27.078125 17.109375 -27.078125 Z M 12.890625 -51.59375 L 12.890625 -35.6875 L 16.59375 -35.6875 C 18.375 -35.6875 19.765625 -36.144531 20.765625 -37.0625 C 21.765625 -37.976562 22.265625 -39.640625 22.265625 -42.046875 L 22.265625 -45.40625 C 22.265625 -47.582031 21.878906 -49.15625 21.109375 -50.125 C 20.335938 -51.101562 19.117188 -51.59375 17.453125 -51.59375 Z M 12.890625 -51.59375"/></g><g id="i"><path d="M 12.46875 -60.1875 L 12.46875 -13.75 C 12.46875 -11.570312 12.910156 -10.050781 13.796875 -9.1875 C 14.691406 -8.332031 15.882812 -7.90625 17.375 -7.90625 C 18.863281 -7.90625 20.050781 -8.332031 20.9375 -9.1875 C 21.820312 -10.050781 22.265625 -11.570312 22.265625 -13.75 L 22.265625 -60.1875 L 31.21875 -60.1875 L 31.21875 -14.359375 C 31.21875 -9.484375 30.023438 -5.738281 27.640625 -3.125 C 25.265625 -0.519531 21.753906 0.78125 17.109375 0.78125 C 12.460938 0.78125 8.953125 -0.519531 6.578125 -3.125 C 4.203125 -5.738281 3.015625 -9.484375 3.015625 -14.359375 L 3.015625 -60.1875 Z M 12.46875 -60.1875"/></g><g id="j"><path d="M 2.234375 -45.75 C 2.234375 -50.613281 3.394531 -54.347656 5.71875 -56.953125 C 8.039062 -59.566406 11.523438 -60.875 16.171875 -60.875 C 20.804688 -60.875 24.285156 -59.566406 26.609375 -56.953125 C 28.929688 -54.347656 30.09375 -50.613281 30.09375 -45.75 L 30.09375 -43.859375 L 21.15625 -43.859375 L 21.15625 -46.34375 C 21.15625 -48.519531 20.738281 -50.050781 19.90625 -50.9375 C 19.070312 -51.832031 17.910156 -52.28125 16.421875 -52.28125 C 14.929688 -52.28125 13.769531 -51.832031 12.9375 -50.9375 C 12.101562 -50.050781 11.6875 -48.519531 11.6875 -46.34375 C 11.6875 -44.28125 12.144531 -42.457031 13.0625 -40.875 C 13.988281 -39.300781 15.140625 -37.8125 16.515625 -36.40625 C 17.890625 -35.007812 19.363281 -33.609375 20.9375 -32.203125 C 22.507812 -30.796875 23.984375 -29.257812 25.359375 -27.59375 C 26.734375 -25.9375 27.878906 -24.046875 28.796875 -21.921875 C 29.722656 -19.804688 30.1875 -17.316406 30.1875 -14.453125 C 30.1875 -9.578125 28.992188 -5.832031 26.609375 -3.21875 C 24.234375 -0.613281 20.722656 0.6875 16.078125 0.6875 C 11.429688 0.6875 7.921875 -0.613281 5.546875 -3.21875 C 3.171875 -5.832031 1.984375 -9.578125 1.984375 -14.453125 L 1.984375 -18.140625 L 10.921875 -18.140625 L 10.921875 -13.84375 C 10.921875 -11.664062 11.363281 -10.144531 12.25 -9.28125 C 13.132812 -8.425781 14.328125 -8 15.828125 -8 C 17.316406 -8 18.503906 -8.425781 19.390625 -9.28125 C 20.273438 -10.144531 20.71875 -11.664062 20.71875 -13.84375 C 20.71875 -15.90625 20.257812 -17.722656 19.34375 -19.296875 C 18.425781 -20.878906 17.28125 -22.367188 15.90625 -23.765625 C 14.53125 -25.171875 13.050781 -26.578125 11.46875 -27.984375 C 9.894531 -29.390625 8.421875 -30.921875 7.046875 -32.578125 C 5.671875 -34.242188 4.523438 -36.132812 3.609375 -38.25 C 2.691406 -40.375 2.234375 -42.875 2.234375 -45.75 Z M 2.234375 -45.75"/></g><g id="k"><path d="M 12.296875 -19.953125 L 0.34375 -60.1875 L 10.234375 -60.1875 L 17.453125 -32.765625 L 24.671875 -60.1875 L 33.703125 -60.1875 L 21.75 -19.953125 L 21.75 0 L 12.296875 0 Z M 12.296875 -19.953125"/></g><g id="l"><path d="M 11.859375 -43.59375 L 11.859375 0 L 3.359375 0 L 3.359375 -60.1875 L 15.21875 -60.1875 L 24.9375 -24.15625 L 24.9375 -60.1875 L 33.359375 -60.1875 L 33.359375 0 L 23.640625 0 Z M 11.859375 -43.59375"/></g><g id="m"><path d="M 12.890625 -34.828125 L 25.875 -34.828125 L 25.875 -26.21875 L 12.890625 -26.21875 L 12.890625 -8.59375 L 29.234375 -8.59375 L 29.234375 0 L 3.4375 0 L 3.4375 -60.1875 L 29.234375 -60.1875 L 29.234375 -51.59375 L 12.890625 -51.59375 Z M 12.890625 -34.828125"/></g></defs><g clip-path="url(#a)"><path fill="#00A359" d="M 274.648438 137.324219 L 297.285156 137.324219 L 297.285156 159.964844 L 274.648438 159.964844 Z M 274.648438 137.324219"/></g><g clip-path="url(#b)"><path fill="#00A359" d="M 274.648438 163.277344 L 297.285156 163.277344 L 297.285156 185.917969 L 274.648438 185.917969 Z M 274.648438 163.277344"/></g><g clip-path="url(#c)"><path fill="#00A359" d="M 274.648438 189.230469 L 297.285156 189.230469 L 297.285156 211.871094 L 274.648438 211.871094 Z M 274.648438 189.230469"/></g><g clip-path="url(#d)"><path fill="#00A359" d="M 274.648438 215.183594 L 297.285156 215.183594 L 297.285156 237.824219 L 274.648438 237.824219 Z M 274.648438 215.183594"/></g><path fill="#00B764" d="M 300.601562 163.277344 L 323.238281 163.277344 L 323.238281 185.917969 L 300.601562 185.917969 Z M 300.601562 163.277344"/><path fill="#00B764" d="M 300.601562 189.230469 L 323.238281 189.230469 L 323.238281 211.871094 L 300.601562 211.871094 Z M 300.601562 189.230469"/><g clip-path="url(#e)"><path fill="#00B764" d="M 300.601562 215.183594 L 323.238281 215.183594 L 323.238281 237.824219 L 300.601562 237.824219 Z M 300.601562 215.183594"/></g><path fill="#00E17B" d="M 326.554688 189.230469 L 349.191406 189.230469 L 349.191406 211.871094 L 326.554688 211.871094 Z M 326.554688 189.230469"/><g clip-path="url(#f)"><path fill="#00E17B" d="M 326.554688 215.183594 L 349.191406 215.183594 L 349.191406 237.824219 L 326.554688 237.824219 Z M 326.554688 215.183594"/></g><g clip-path="url(#g)"><path fill="#00FF8B" d="M 352.507812 215.183594 L 375.148438 215.183594 L 375.148438 237.824219 L 352.507812 237.824219 Z M 352.507812 215.183594"/></g><g fill="#D9D9D9"><use x=".216" y="216.726" xmlns:xlink="http://www.w3.org/1999/xlink" xlink:href="#h" xlink:type="simple" xlink:actuate="onLoad" xlink:show="embed"/></g><g fill="#D9D9D9"><use x="35.124" y="216.726" xmlns:xlink="http://www.w3.org/1999/xlink" xlink:href="#i" xlink:type="simple" xlink:actuate="onLoad" xlink:show="embed"/></g><g fill="#D9D9D9"><use x="69.345" y="216.726" xmlns:xlink="http://www.w3.org/1999/xlink" xlink:href="#j" xlink:type="simple" xlink:actuate="onLoad" xlink:show="embed"/></g><g fill="#D9D9D9"><use x="101.501" y="216.726" xmlns:xlink="http://www.w3.org/1999/xlink" xlink:href="#k" xlink:type="simple" xlink:actuate="onLoad" xlink:show="embed"/></g><g fill="#D9D9D9"><use x="135.55" y="216.726" xmlns:xlink="http://www.w3.org/1999/xlink" xlink:href="#l" xlink:type="simple" xlink:actuate="onLoad" xlink:show="embed"/></g><g fill="#D9D9D9"><use x="172.263" y="216.726" xmlns:xlink="http://www.w3.org/1999/xlink" xlink:href="#m" xlink:type="simple" xlink:actuate="onLoad" xlink:show="embed"/></g><g fill="#D9D9D9"><use x="203.904" y="216.726" xmlns:xlink="http://www.w3.org/1999/xlink" xlink:href="#j" xlink:type="simple" xlink:actuate="onLoad" xlink:show="embed"/></g><g fill="#D9D9D9"><use x="236.061" y="216.726" xmlns:xlink="http://www.w3.org/1999/xlink" xlink:href="#j" xlink:type="simple" xlink:actuate="onLoad" xlink:show="embed"/></g></svg>